<svg width="15" height="16" viewBox="0 0 15 16" fill="none" xmlns="http://www.w3.org/2000/svg">
<path d="M1.875 9.875C3.42688 9.875 4.59062 8 4.59062 8C4.59062 8 5.75437 9.875 7.30625 9.875C8.8575 9.875 10.4094 8 10.4094 8C10.4094 8 11.9613 9.875 13.125 9.875" stroke="#676879" stroke-linecap="round" stroke-linejoin="round"/>
<path d="M1.875 13C3.42688 13 4.59062 11.125 4.59062 11.125C4.59062 11.125 5.75437 13 7.30625 13C8.8575 13 10.4094 11.125 10.4094 11.125C10.4094 11.125 11.9613 13 13.125 13" stroke="#676879" stroke-linecap="round" stroke-linejoin="round"/>
<path d="M3.125 7.06283L5.625 5.50033L4.88313 4.57283C4.81721 4.49035 4.76853 4.39548 4.73996 4.29384C4.71138 4.1922 4.70351 4.08586 4.7168 3.98112C4.73009 3.87638 4.76427 3.77537 4.81732 3.68409C4.87037 3.59281 4.9412 3.5131 5.02563 3.4497C5.18732 3.32839 5.38945 3.27384 5.59022 3.29734C5.79099 3.32083 5.97506 3.42058 6.10438 3.57595L8.75 6.75033" stroke="#676879" stroke-linecap="round" stroke-linejoin="round"/>
<path d="M10.3125 5.5C10.7269 5.5 11.1243 5.33538 11.4174 5.04235C11.7104 4.74933 11.875 4.3519 11.875 3.9375C11.875 3.5231 11.7104 3.12567 11.4174 2.83265C11.1243 2.53962 10.7269 2.375 10.3125 2.375C9.8981 2.375 9.50067 2.53962 9.20765 2.83265C8.91462 3.12567 8.75 3.5231 8.75 3.9375C8.75 4.3519 8.91462 4.74933 9.20765 5.04235C9.50067 5.33538 9.8981 5.5 10.3125 5.5V5.5Z" stroke="#676879" stroke-linecap="round" stroke-linejoin="round"/>
</svg>
