<svg width="15" height="16" viewBox="0 0 15 16" fill="none" xmlns="http://www.w3.org/2000/svg">
<path d="M7.42788 0.500102C6.53816 0.500102 5.80529 1.23297 5.80529 2.12269L5.81394 2.03398L5.28119 5.23048L4.25895 8.02781C4.23948 8.05323 4.21623 8.07216 4.18269 8.07216H3.64183V7.5313H0.9375V14.5625H3.64183V12.9399H5.76526C6.65445 12.9399 7.45547 12.5088 7.96875 11.8393C8.48257 12.5088 9.28305 12.9399 10.1722 12.9399H12.2957V14.5625H15V7.5313H12.2957V8.07216H11.7548C11.7207 8.07216 11.698 8.05323 11.6791 8.02781L10.6563 5.23048L10.1236 2.03398L10.1322 2.12269C10.1322 1.23297 9.39934 0.500102 8.50961 0.500102C8.32572 0.500102 8.1375 0.535798 7.96875 0.622877C7.80072 0.539725 7.61535 0.497647 7.42788 0.500102ZM7.40895 1.59048C7.41977 1.66836 7.42788 1.84576 7.42788 2.12269V10.4725C7.35703 10.8617 7.15175 11.2136 6.84788 11.4669C6.54401 11.7201 6.16084 11.8586 5.76526 11.8582H3.64183V9.15388H4.18269C4.60727 9.15388 5.00264 8.92348 5.21142 8.55353L5.23305 8.5135L6.32939 5.50523L6.88702 2.16704V2.12269C6.88702 1.82521 7.11526 1.60075 7.40895 1.59048ZM8.52855 1.59048C8.82224 1.6013 9.05048 1.82467 9.05048 2.12269V2.16704L9.60811 5.50523L10.705 8.5135L10.7261 8.55407C10.8294 8.73594 10.9789 8.88723 11.1596 8.99258C11.3403 9.09793 11.5457 9.15358 11.7548 9.15388H12.2957V11.8582H10.1722C9.77658 11.8586 9.39335 11.72 9.08947 11.4667C8.78558 11.2133 8.58035 10.8612 8.50961 10.472V2.12269C8.50961 1.84576 8.51827 1.66836 8.52855 1.59048ZM2.01923 8.61302H2.5601V13.4808H2.01923V8.61302ZM13.3774 8.61302H13.9183V13.4808H13.3774V8.61302Z" fill="#676879"/>
</svg>
