<svg width="15" height="16" viewBox="0 0 15 16" fill="none" xmlns="http://www.w3.org/2000/svg">
<path d="M13.125 1.4375H7.5C7.25144 1.43775 7.01312 1.5366 6.83736 1.71236C6.6616 1.88812 6.56275 2.12644 6.5625 2.375V7.0625H1.875C1.62644 7.06275 1.38812 7.1616 1.21236 7.33736C1.0366 7.51312 0.937748 7.75144 0.9375 8V14.5625H14.0625V2.375C14.0623 2.12644 13.9634 1.88812 13.7876 1.71236C13.6119 1.5366 13.3736 1.43775 13.125 1.4375ZM4.21875 13.625V10.3438H6.09375V13.625H4.21875ZM13.125 13.625H7.03125V9.875C7.03125 9.75068 6.98186 9.63145 6.89396 9.54354C6.80605 9.45564 6.68682 9.40625 6.5625 9.40625H3.75C3.62568 9.40625 3.50645 9.45564 3.41854 9.54354C3.33064 9.63145 3.28125 9.75068 3.28125 9.875V13.625H1.875V8H7.5V2.375H13.125V13.625Z" fill="#676879"/>
<path d="M8.4375 4.25H9.375V5.1875H8.4375V4.25Z" fill="#676879"/>
<path d="M11.25 4.25H12.1875V5.1875H11.25V4.25Z" fill="#676879"/>
<path d="M8.4375 7.0625H9.375V8H8.4375V7.0625Z" fill="#676879"/>
<path d="M11.25 7.0625H12.1875V8H11.25V7.0625Z" fill="#676879"/>
<path d="M8.4375 9.875H9.375V10.8125H8.4375V9.875Z" fill="#676879"/>
<path d="M11.25 9.875H12.1875V10.8125H11.25V9.875Z" fill="#676879"/>
<path d="M0.9375 5.1875H3.28125V6.125H0.9375V5.1875Z" fill="#676879"/>
<path d="M4.6875 1.4375H5.625V3.78125H4.6875V1.4375Z" fill="#676879"/>
<path d="M1.875 3.03781L2.53781 2.375L4.21875 4.05547L3.55547 4.71875L1.875 3.03781Z" fill="#676879"/>
</svg>
