<?xml version="1.0" encoding="utf-8"?>
<!-- Generator: Adobe Illustrator 26.3.1, SVG Export Plug-In . SVG Version: 6.00 Build 0)  -->
<svg 
 version="1.1" id="Layer_1" xmlns="http://www.w3.org/2000/svg" xmlns:xlink="http://www.w3.org/1999/xlink" x="0px" y="0px"
	 viewBox="0 0 612 150.5" style="enable-background:new 0 0 612 150.5;" xml:space="preserve">
<style type="text/css">
	.st0{fill:#003399;}
	.st1{fill:#0099CC;}
</style>
<g>
	<g>
		<path class="st0" d="M75.8,95.6V46.9c0-0.6,0.2-1.1,0.6-1.5c0.4-0.4,0.9-0.6,1.5-0.6c1.6,0,5.2,0,11.2-0.3c5-0.2,8.4,0.8,10.3,3.1
			c1.7,2,1.9,4.7,2.1,7.1c0,0.2,0,0.3,0,0.5c0.2,2.2,0.1,5.6,0,8.8c0,2.1-0.1,4.2,0,5.6c0.1,5,2.2,21.2,23.6,21.2
			c7.4,0,13.3-2.3,17.3-6.9c8.4-9.5,6.8-26.2,6.4-29.8h-7.4L127,77.8c-0.4,0.6-1.1,1-1.8,1c-0.7,0-1.4-0.4-1.8-1l-14.7-22.6
			c-0.4-0.7-0.5-1.5-0.1-2.2c0.4-0.7,1.1-1.1,1.9-1.1h29.6l7.7-12.5h-36.5c-0.6,0-1.1-0.5-1.1-1.1c0-0.6,0.5-1.1,1.1-1.1h36.8
			c0.8,0,1.5,0.4,1.9,1.1c0.4,0.7,0.4,1.5,0,2.2l-7.1,11.6h6.2c1.1,0,2,0.8,2.1,1.9c0.3,2,0.8,7.4,0.2,13.5
			c-0.8,7.7-3.2,13.9-7,18.3c-4.5,5.1-10.9,7.7-19,7.7c-5.7,0-10.6-1.1-14.6-3.3c-3.3-1.8-5.9-4.3-7.8-7.5
			c-2.2-3.6-3.4-8.1-3.6-12.7c0-1.5,0-3.5,0-5.7c0.1-3.1,0.1-6.5,0-8.6c0-0.2,0-0.3,0-0.5c-0.4-4.6-0.7-8.5-10-8.1
			C83.4,47,79.8,47,78.1,47v48.5h12c0.6,0,1.1,0.5,1.1,1.1c0,0.6-0.5,1.1-1.1,1.1H77.9C76.8,97.8,75.8,96.8,75.8,95.6z"/>
		<path class="st0" d="M90,99.3H77.9c-2,0-3.6-1.6-3.6-3.6V46.9c0-1,0.4-1.9,1.1-2.6c0.7-0.7,1.6-1,2.6-1.1c1.6,0,5.1,0,11.1-0.3
			c5.6-0.2,9.3,0.9,11.5,3.6c2,2.4,2.2,5.5,2.4,7.9l0,0.5c0.2,2.3,0.1,5.7,0.1,9c0,2.1-0.1,4.1,0,5.5c0.2,5.9,2.7,19.8,22.1,19.8
			c7,0,12.4-2.1,16.2-6.4c7.2-8.2,6.6-22.3,6.1-27.3h-5.2l-14,22.9c-0.7,1.1-1.8,1.7-3.1,1.7c-1.3,0-2.4-0.6-3.1-1.7L107.5,56
			c-0.7-1.1-0.8-2.5-0.1-3.7c0.6-1.2,1.9-1.9,3.2-1.9h28.8l5.8-9.5h-33.9c-1.5,0-2.6-1.2-2.6-2.6s1.2-2.6,2.6-2.6h36.8
			c1.3,0,2.5,0.7,3.2,1.9c0.6,1.1,0.6,2.6-0.1,3.7l-5.7,9.3h3.5c1.8,0,3.4,1.4,3.6,3.2c0.3,2.1,0.8,7.6,0.2,13.8
			c-0.8,8.1-3.3,14.5-7.4,19.1c-4.8,5.4-11.5,8.2-20.1,8.2c-6,0-11.1-1.2-15.3-3.5c-3.5-1.9-6.3-4.6-8.4-8
			c-2.3-3.8-3.6-8.6-3.8-13.4c0-1.5,0-3.6,0-5.8c0.1-3,0.1-6.5,0-8.4l0-0.5c-0.4-4.6-0.6-7.1-8.5-6.7c-4.5,0.2-7.7,0.3-9.7,0.3V94
			H90c1.5,0,2.6,1.2,2.6,2.6S91.5,99.3,90,99.3z M110.5,53.4c-0.2,0-0.4,0.1-0.6,0.3c-0.1,0.2-0.1,0.5,0,0.6L124.7,77
			c0.1,0.2,0.3,0.3,0.5,0.3c0.2,0,0.4-0.1,0.5-0.3l14.4-23.6H110.5z"/>
	</g>
</g>
<g>
	<path class="st0" d="M162.9,34.6H185c12.9,0,21.6,8.9,21.6,20.8s-8.6,20.8-21.6,20.8h-11v23.4h-11.2V34.6z M195.2,55.5
		c0-6.1-4-10.2-11.6-10.2H174v20.5h9.6C191.2,65.7,195.2,61.6,195.2,55.5z"/>
	<path class="st0" d="M209,34.6h11.2v65.1H209V34.6z"/>
	<path class="st0" d="M265.9,71v28.7h-10.3v-5.6c0,0-4.6,6.7-14.5,6.7c-8.3,0-15.9-5.4-15.9-14.8c0-8.5,7.7-14.6,17.3-14.6
		c8.1,0,12.3,3.2,12.3,3.2v-2.5c0-5.8-5.6-7.6-9.5-7.6c-6.4,0-13.2,3.3-13.2,3.3l-3.6-9.2c0,0,8.2-4,17.4-4
		C258.4,54.5,265.9,61,265.9,71z M254.7,86.4v-4.6c0,0-4-2.2-10-2.2c-3.4,0-8.2,1.5-8.2,6.2c0,4.7,4.6,5.7,8,5.7
		C251.2,91.6,254.7,86.4,254.7,86.4z"/>
	<path class="st0" d="M310.4,71.2v28.6h-11.2V74c0-6.3-3.9-9-8.7-9c-5.8,0-8.7,5.7-8.7,5.7v29.1h-11.2V55.7H281v6.4
		c0,0,3.9-7.5,13.2-7.5C302.8,54.5,310.4,60.6,310.4,71.2z"/>
	<path class="st1" d="M337,72.6c-9.6-3.3-20.4-8.6-20.4-20.6c0-9.2,8.2-18.4,21.3-18.4c13.6,0,21.2,10.3,21.2,10.3l-7.7,7.6
		c0,0-5.4-7.3-13.5-7.3c-5.6,0-10,3.4-10,7.8c0,5.7,5.1,7.4,14,10.8c10,3.7,18.2,8.2,18.2,20c0,11.8-10.4,18.1-22.7,18.1
		c-16.3,0-23.8-13.3-23.8-13.3l8.4-7.1c0,0,5.6,9.8,15.4,9.8c5.6,0,11.3-2.2,11.3-7.5C348.9,77.2,344.7,75.3,337,72.6z"/>
	<path class="st1" d="M374.3,55.7v5.8c0,0,4.2-6.9,13.3-6.9c11.4,0,21.5,9.6,21.5,23.2c0,13.6-10,23.2-21.5,23.2
		c-7,0-11-3.8-12.5-5.7v25.9h-11.2V55.7H374.3z M375.1,84.3c0,0,3.2,6.1,10.5,6.1c7.5,0,12.1-5.5,12.1-12.7
		c0-7.3-4.6-12.7-12.1-12.7c-7.3,0-10.5,6.1-10.5,6.1V84.3z"/>
	<path class="st1" d="M451.5,71v28.7h-10.3v-5.6c0,0-4.6,6.7-14.5,6.7c-8.3,0-15.9-5.4-15.9-14.8c0-8.5,7.7-14.6,17.3-14.6
		c8.1,0,12.3,3.2,12.3,3.2v-2.5c0-5.8-5.6-7.6-9.5-7.6c-6.4,0-13.2,3.3-13.2,3.3l-3.6-9.2c0,0,8.2-4,17.4-4
		C444,54.5,451.5,61,451.5,71z M440.3,86.4v-4.6c0,0-4-2.2-10-2.2c-3.4,0-8.2,1.5-8.2,6.2c0,4.7,4.6,5.7,8,5.7
		C436.8,91.6,440.3,86.4,440.3,86.4z"/>
	<path class="st1" d="M489.8,85.1l7.3,7.4c0,0-6.3,8.4-18.2,8.4c-13.2,0-23.7-10.2-23.7-23.2c0-13,10.5-23.2,23.7-23.2
		c11.8,0,18,8.2,18,8.2l-7.7,6.9c0,0-3.6-4.6-10.3-4.6c-7.5,0-12.4,5.9-12.4,12.7s4.8,12.7,12.4,12.7S489.8,85.1,489.8,85.1z"/>
	<path class="st1" d="M541.3,77.5c0,0.8,0,2.5-0.1,4.2h-32.9c0.8,3.9,5.4,8.9,12.4,8.9c7.7,0,12.1-4.5,12.1-4.5l5.6,8.4
		c0,0-7,6.3-17.7,6.3c-13.4,0-23.7-10.2-23.7-23.2s9.4-23.2,22.1-23.2C531.2,54.5,541.3,63.9,541.3,77.5z M530.1,73.6
		c-0.2-3.8-3.7-8.9-11.1-8.9c-7.2,0-10.4,5-10.8,8.9H530.1z"/>
</g>
</svg>
